<svg xmlns="http://www.w3.org/2000/svg" xmlns:xlink="http://www.w3.org/1999/xlink" xml:space="preserve" width="388.30035mm" height="388.30035mm" viewBox="0 0 388.30036 388.30036"><defs><linearGradient id="b"><stop offset="0.25" style="stop-color:#04000a;stop-opacity:1"/><stop offset="0.75" style="stop-color:#6b3f65;stop-opacity:1"/></linearGradient><linearGradient id="a"><stop offset="0.25" style="stop-color:#04000a;stop-opacity:1"/><stop offset="0.75" style="stop-color:#6b3f65;stop-opacity:1"/></linearGradient><linearGradient xlink:href="#a" id="c" x1="-755.42163" x2="-755.42163" y1="-53.715984" y2="324.58438" gradientUnits="userSpaceOnUse"/><clipPath id="d" clipPathUnits="userSpaceOnUse"><path d="M265.387-14.033h94.586v271.59h-94.586zm29.13 88.017v88.532l28.386-46.661z" class="powerclip" style="fill:#fff;fill-opacity:1;stroke-width:.264583"/></clipPath></defs><g transform="translate(949.572 58.716)"><rect width="378.30035" height="378.30035" x="-944.57178" y="-53.715984" ry="58.122742" style="fill:url(#c);fill-opacity:1;stroke:url(#linearGradient24908);stroke-width:10;stroke-linecap:round;stroke-linejoin:round;stroke-miterlimit:1000;stroke-dasharray:none;stroke-opacity:1"/><path d="M270.387-84.097v56.952l140.339-15.79v-58.194L373.823-70.79 339.04-97.604l-31.866 34.187z" style="display:inline;fill:#fae60b;fill-opacity:1;stroke-width:.264583" transform="translate(-1105.07 57.22)"/><path d="m410.726-101.129 13.75 11.887.976 55-14.726-8.693z" style="display:inline;fill:#fff;fill-opacity:1;stroke-width:.264583" transform="translate(-1105.07 57.22)"/><path d="m270.387-27.145 15.963 8.201 139.102-15.298-14.726-8.693z" style="fill:#f1a23b;fill-opacity:1;stroke-width:.264583" transform="translate(-1105.07 57.22)"/><path d="m270.387-27.145 15.963 8.201 41.182-4.529-15.42-8.367zM339.04-97.604l14.29 7.741 22.546 17.384-2.053 1.689zM270.387-84.097l37.014 20.437-.226.243z" style="fill:#fff;fill-opacity:1;stroke-width:.264583" transform="translate(-1105.07 57.22)"/><g style="display:inline"><path d="M270.387-9.033v261.59l84.586-139.334z" clip-path="url(#d)" style="display:inline;fill:#000;fill-opacity:1;stroke-width:.264583" transform="translate(-1105.07 57.22)"/><path d="M294.516 73.984v88.532l16.796-27.607V98.757Z" style="display:inline;fill:#f1a23b;fill-opacity:1;stroke-width:.264583" transform="translate(-1105.07 57.22)"/><path d="m270.387 252.556 15.17 5 84.939-138.197-15.523-6.136z" style="display:inline;fill:#fece62;fill-opacity:1;stroke-width:.264583" transform="translate(-1105.07 57.22)"/><path d="m354.973 113.223 15.523 6.136L287.508-1.198l-17.12-7.835Z" style="display:inline;fill:#fff;fill-opacity:1;stroke-width:.264583" transform="translate(-1105.07 57.22)"/></g><path d="m358.486 118.304 26.722 38.828V30.462l-74.771 7.645-16.83-24.712 101.417-11.31 17.83-26.924v271.137l-70.257-102.721Z" style="display:inline;fill:#000;fill-opacity:1;stroke-width:.264583" transform="translate(-1105.07 57.22)"/><path d="m310.437 38.107 16.027 6.994 58.744-5.332v-9.307zM412.855-24.839v271.137l16.056 4.44-2.35-267.77z" style="fill:#fff;fill-opacity:1;stroke-width:.264583" transform="translate(-1105.07 57.22)"/><path d="m427.139 48.865 1.772 201.873-16.056-4.44V38.138Z" style="display:inline;fill:#fce364;fill-opacity:1;stroke-width:.264583" transform="translate(-1105.07 57.22)"/><path d="m374.887 124.016-16.401-5.712 26.722 38.828v-18.834z" style="fill:#fff;fill-opacity:1;stroke-width:.264583" transform="translate(-1105.07 57.22)"/></g></svg>